<?xml version="1.0" standalone="no"?>
<!DOCTYPE svg PUBLIC "-//W3C//DTD SVG 20010904//EN"
 "http://www.w3.org/TR/2001/REC-SVG-20010904/DTD/svg10.dtd">
<svg version="1.0" xmlns="http://www.w3.org/2000/svg"
 width="709.000000pt" height="709.000000pt" viewBox="0 0 709.000000 709.000000"
 preserveAspectRatio="xMidYMid meet">

<g transform="translate(0.000000,709.000000) scale(0.100000,-0.100000)"
fill="#000000" stroke="none">
<path d="M4165 5134 c-149 -21 -192 -28 -275 -50 -257 -66 -476 -189 -633
-353 l-57 -59 -112 34 c-154 46 -329 81 -485 95 -226 21 -435 -11 -603 -93
-111 -54 -239 -179 -288 -279 -66 -137 -77 -251 -37 -404 44 -170 117 -338
228 -528 49 -83 54 -88 100 -102 101 -30 177 -39 337 -38 220 1 410 30 860
134 184 42 448 114 458 124 8 8 -254 459 -270 463 -10 2 -18 8 -18 11 0 15
171 208 227 257 298 260 663 441 1023 509 108 21 310 32 310 18 0 -6 -15 -33
-33 -59 -66 -96 -294 -244 -639 -415 -82 -41 -148 -78 -148 -83 0 -5 20 -41
43 -80 57 -92 151 -253 168 -288 l14 -28 83 47 c119 67 359 250 480 367 208
201 283 357 238 494 -15 44 -25 56 -89 100 -138 95 -258 142 -463 182 -104 20
-347 34 -419 24z m-1279 -960 l21 -6 -19 -66 c-10 -37 -18 -78 -18 -93 0 -24
-4 -26 -77 -37 -137 -21 -356 -42 -441 -42 l-83 0 18 31 c49 84 184 175 301
203 57 14 258 21 298 10z"/>
<path d="M5297 4549 c-12 -187 -97 -382 -247 -570 -78 -98 -258 -276 -375
-370 -57 -46 -104 -88 -104 -92 -1 -9 225 -415 238 -430 10 -10 159 146 243
253 166 213 282 454 334 690 11 48 16 121 16 205 0 144 -19 240 -70 350 l-29
60 -6 -96z"/>
<path d="M3799 3055 c-389 -182 -764 -291 -1125 -327 l-124 -12 23 -24 c80
-87 478 -408 645 -521 l64 -43 91 37 c137 56 416 192 552 269 144 82 295 176
295 184 0 8 -272 492 -279 496 -4 3 -67 -24 -142 -59z"/>
</g>
</svg>
